<svg id="e8DOxfec6WY1" xmlns="http://www.w3.org/2000/svg"
     xmlns:xlink="http://www.w3.org/1999/xlink" viewBox="0 0 2200 2200"
     shape-rendering="geometricPrecision" text-rendering="geometricPrecision">
  <defs>
    <filter id="e8DOxfec6WY4-filter" x="-400%" width="600%" y="-400%"
            height="600%">
      <feGaussianBlur id="e8DOxfec6WY4-filter-drop-shadow-0-blur"
                      in="SourceAlpha" stdDeviation="0,0"/>
      <feOffset id="e8DOxfec6WY4-filter-drop-shadow-0-offset" dx="160" dy="-60"
                result="tmp"/>
      <feFlood id="e8DOxfec6WY4-filter-drop-shadow-0-flood"
               flood-color="#9CDCFE"/>
      <feComposite id="e8DOxfec6WY4-filter-drop-shadow-0-composite"
                   operator="in" in2="tmp"/>
      <feMerge id="e8DOxfec6WY4-filter-drop-shadow-0-merge">
        <feMergeNode id="e8DOxfec6WY4-filter-drop-shadow-0-merge-node-1"/>
        <feMergeNode id="e8DOxfec6WY4-filter-drop-shadow-0-merge-node-2"
                     in="SourceGraphic"/>
      </feMerge>
    </filter>
  </defs>
  <!--  <rect width="2200" height="2200" rx="0" ry="0" fill="#f5f6f7" fill-opacity="0"-->
  <!--        stroke-width="0"/>-->
  <path
    d="M-1100,0c0-607.513225,492.486775-1100,1100-1100s1100,492.486775,1100,1100-492.486775,1100-1100,1100-1100-492.486775-1100-1100Z"
    transform="translate(1100 1100)" fill="#242526" stroke-width="0"/>
  <path
    d="M953.803254,425.729082c-47.353104,32.305845-24.807637,81.895699-33.996123,126.897665-4.600597,22.507338-25.926015,35.076371-32.331266,56.630546-12.238604,41.189317-3.062827,132.654766,19.889321,168.88764c21.236457,33.513184,110.477868,35.050953,108.139443,79.39206-1.321719,24.909306-26.574166,48.700235-38.38067,69.530007-28.709249,50.657396-60.608415,110.744744-81.222139,164.998738-19.902029,52.385796-27.641707,104.949516-41.074942,158.657031-33.703819,134.624635-59.68067,265.957683-46.336398,406.161493c3.418676,35.915153,26.485204,53.237288,43.235444,82.594685c13.534904,23.740094,20.168915,55.524877,24.019691,82.404053c4.740393,33.182754,1.830071,68.09391,1.906325,101.54355.025417,14.818495-2.630729,34.682396,6.51963,47.505605c20.384965,28.556741,72.033653,12.213186,96.930254,38.253579c28.544033,29.840332,29.840335,86.051486,42.536457,123.669623c7.904892,23.435081,16.699404,47.899579,31.492483,68.004948c13.166349,17.894032,32.890454,31.111215,40.808056,52.589137c6.456086,17.500059,3.825358,38.787349,3.825358,57.113482h139.619217c15.352268-.038127,39.702388,3.58389,50.593857-10.167064c14.449939-18.262589,3.215333-51.750355,1.258173-72.325951-2.020704-21.211037.317722-42.612706-4.943735-63.467896-11.704833-46.361811-38.838188-87.093611-50.848033-133.264789-5.566467-21.388961-13.623866-47.89958-2.224045-68.729352c14.869332-27.171479,50.6574-38.444211,55.982401-71.46175c8.451372-52.385797-42.053522-102.115448-56.173033-151.743428c24.464499-8.349701,49.297555-17.156921,65.348808-38.749222c11.984428-16.114797,14.856624-37.46563,31.606863-50.047372c35.915157-26.993555,76.634251-23.104653,106.436459-64.07792c47.759787-65.70465,60.951554-148.934777,69.809609-227.894736c12.289439-109.37219,14.437232-252.549866-48.26814-348.793835-20.308711-31.17476-51.31826-40.121776-75.617545-65.463183-23.587589-24.578877-34.224881-52.906858-66.823033-68.576845-35.368676-17.004414-70.33067-14.627864-107.885266-18.529474c39.02882-20.486634,82.51844-28.315273,120.009492-52.817896c49.971123-32.661694,71.474465-87.894268,83.077628-143.914789c36.359965,17.207755,146.380314,73.279113,144.168978-12.569033-1.169213-45.878876-88.161161-47.632694-113.108596-80.205425-21.655848-28.264438-16.496063-76.901129-33.424226-110.299934-51.483474-101.530842-160.474408-149.354169-270.520176-141.18239-62.908713,4.676849-180.427273,28.086513-184.036581,109.448442Z"
    transform="translate(-79.922637-110.966064)"
    filter="url(#e8DOxfec6WY4-filter)" fill="#fff"/>
</svg>
